<?xml version="1.0" standalone="no"?>
<!DOCTYPE svg PUBLIC "-//W3C//DTD SVG 1.1//EN" "http://www.w3.org/Graphics/SVG/1.1/DTD/svg11.dtd" >
<svg xmlns="http://www.w3.org/2000/svg">
<metadata></metadata>
<defs>
<font id="ars_maquette_promedium_italic" horiz-adv-x="1202" >
<font-face units-per-em="2048" ascent="1638" descent="-410" />
<missing-glyph horiz-adv-x="552" />
<glyph unicode="&#xfb01;" horiz-adv-x="1263" d="M96 0l191 901h-174l37 174h174l26 121q32 147 123.5 218t249.5 71q104 0 190 -37l-69 -176q-22 14 -61 24.5t-72 10.5q-119 0 -144 -127l-22 -105h237l-37 -174h-237l-191 -901h-221zM762 0l227 1075h221l-227 -1075h-221zM1026 1249l45 213h221l-45 -213h-221z" />
<glyph unicode="&#xfb02;" horiz-adv-x="1257" d="M96 0l191 901h-174l37 174h174l26 121q32 147 123.5 218t249.5 71q104 0 190 -37l-69 -176q-22 14 -61 24.5t-72 10.5q-119 0 -144 -127l-22 -105h237l-37 -174h-237l-191 -901h-221zM760 0l309 1462h221l-309 -1462h-221z" />
<glyph horiz-adv-x="2048" />
<glyph horiz-adv-x="2048" />
<glyph unicode="&#xd;" horiz-adv-x="2048" />
<glyph unicode=" "  horiz-adv-x="552" />
<glyph unicode="&#x09;" horiz-adv-x="552" />
<glyph unicode="&#xa0;" horiz-adv-x="552" />
<glyph unicode="!" horiz-adv-x="575" d="M39 0l53 254h248l-55 -254h-246zM199 428l61 614l68 322h245l-67 -322l-207 -614h-100z" />
<glyph unicode="&#x22;" horiz-adv-x="860" d="M217 836l27 450l16 78h246l-17 -78l-167 -450h-105zM631 836l26 450l17 78h246l-17 -78l-168 -450h-104z" />
<glyph unicode="#" horiz-adv-x="1347" d="M63 381l29 133h248l131 338h-227l28 133h250l150 379h143l-145 -379h280l148 379h145l-147 -379h225l-29 -133h-248l-131 -338h228l-27 -133h-252l-147 -381h-148l150 381h-281l-149 -381h-146l148 381h-226zM487 514h281l129 338h-281z" />
<glyph unicode="$" d="M8 283l180 98q41 -83 114.5 -134t166.5 -71l92 432q-92 37 -154.5 72t-112.5 81t-73.5 104.5t-23.5 133.5q0 119 62.5 209t167.5 136.5t237 46.5q11 0 61 -5l29 136h112l-32 -154q216 -60 329 -240l-172 -102q-69 108 -198 152l-84 -390q89 -35 151.5 -70.5t113.5 -83 t76 -108.5t25 -137q0 -179 -139 -295.5t-373 -116.5h-26l-37 -174h-111l39 187q-143 25 -253 101.5t-167 191.5zM414 1022q0 -66 45 -106.5t147 -86.5l78 369h-25q-107 0 -176 -45.5t-69 -130.5zM575 164q125 0 205 55.5t80 155.5q0 62 -45.5 103t-152.5 89z" />
<glyph unicode="%" horiz-adv-x="1665" d="M195 1012q0 154 99.5 262t254.5 108q134 0 216.5 -90t82.5 -223q0 -154 -100 -262.5t-252 -108.5q-136 0 -218.5 89.5t-82.5 224.5zM268 0l989 1364h175l-990 -1364h-174zM352 1018q0 -78 38.5 -126t111.5 -48q84 0 137 63t53 154q0 78 -40 126t-113 48 q-84 0 -135.5 -62.5t-51.5 -154.5zM854 295q0 155 99 263t253 108q136 0 218.5 -89.5t82.5 -224.5q0 -153 -99.5 -261.5t-254.5 -108.5q-134 0 -216.5 90t-82.5 223zM1010 303q0 -76 40 -125t111 -49q84 0 136.5 62.5t52.5 154.5q0 78 -39.5 126t-112.5 48q-84 0 -136 -62.5 t-52 -154.5z" />
<glyph unicode="&#x26;" horiz-adv-x="1394" d="M33 375q0 285 354 405q-68 146 -68 250q0 159 109.5 259t280.5 100q154 0 259 -81.5t105 -224.5q0 -72 -28 -131.5t-82.5 -106.5t-124 -83t-164.5 -68q102 -182 213 -356q122 135 186 332l182 -56q-25 -88 -86.5 -203t-158.5 -212q55 -52 123 -52q55 0 100 31l39 -158 q-67 -45 -185 -45q-149 0 -249 95q-168 -95 -353 -95q-92 0 -173 25.5t-143.5 74t-99 126t-36.5 174.5zM264 383q0 -102 71 -162.5t185 -60.5q102 0 195 55q-97 147 -248 410q-203 -74 -203 -242zM528 1042q0 -83 66 -206q153 47 215.5 105.5t62.5 131.5q0 68 -44.5 109 t-120.5 41q-79 0 -129 -48.5t-50 -132.5z" />
<glyph unicode="'" horiz-adv-x="446" d="M217 836l27 450l16 78h246l-17 -78l-167 -450h-105z" />
<glyph unicode="(" horiz-adv-x="657" d="M74 496q0 322 171.5 579t477.5 410l74 -146q-253 -136 -394 -361t-141 -491q0 -351 258 -598l-123 -133q-145 137 -234 324t-89 416z" />
<glyph unicode=")" horiz-adv-x="671" d="M-115 -98q253 136 394 361t141 491q0 351 -258 598l123 133q145 -137 234 -324t89 -416q0 -322 -171.5 -579t-477.5 -410z" />
<glyph unicode="*" horiz-adv-x="1040" d="M203 1032l33 156q88 -19 149.5 -41t163.5 -72q-63 102 -91 159t-55 142l154 49q28 -87 40 -149.5t21 -177.5q55 102 91.5 155.5t95.5 118.5l121 -106q-58 -65 -107 -106t-149 -109q120 3 183.5 -2t150.5 -25l-35 -156q-88 19 -149 41t-165 72q62 -100 90 -158.5 t56 -142.5l-154 -51q-29 89 -40.5 152t-18.5 177q-56 -103 -92.5 -156.5t-96.5 -117.5l-118 104q57 67 105.5 108.5t148.5 109.5q-121 -3 -184.5 1.5t-147.5 24.5z" />
<glyph unicode="+" d="M94 528l39 189h397l88 407h189l-86 -407h397l-41 -189h-397l-86 -405h-188l86 405h-398z" />
<glyph unicode="," horiz-adv-x="542" d="M-41 -227q68 32 112 81t58 107l8 39h-117l54 252h254l-49 -238q-26 -122 -89.5 -203t-179.5 -139z" />
<glyph unicode="-" horiz-adv-x="811" d="M94 477l43 197h568l-41 -197h-570z" />
<glyph unicode="." horiz-adv-x="542" d="M20 0l54 252h254l-54 -252h-254z" />
<glyph unicode="/" horiz-adv-x="811" d="M-78 -221l797 1683h184l-797 -1683h-184z" />
<glyph unicode="0" d="M90 514q0 71 9.5 148.5t32 163.5t55.5 165.5t84 152.5t113 127t147 86t182 32q94 0 168.5 -30t123.5 -80t81.5 -119.5t46.5 -145t14 -160.5q0 -71 -9.5 -148t-31.5 -163.5t-54.5 -166.5t-83 -154t-112.5 -128t-146.5 -86.5t-181.5 -32.5q-94 0 -169 30t-124.5 80 t-82.5 120t-47.5 146.5t-14.5 162.5zM319 477q0 -61 10 -112.5t33 -97t66.5 -71.5t103.5 -26q62 0 116 28.5t92.5 75.5t69.5 110t51 129.5t33 136t18.5 128t5.5 107.5q0 64 -10.5 116t-33.5 96.5t-65.5 69.5t-101.5 25q-63 0 -117 -29t-92.5 -76t-70 -110.5t-51.5 -130 t-33 -136.5t-18.5 -127.5t-5.5 -105.5z" />
<glyph unicode="1" d="M82 0l41 193h330l190 907q-48 -24 -150 -51.5t-196 -38.5l-16 178q321 50 477 176h176l-250 -1171h311l-41 -193h-872z" />
<glyph unicode="2" d="M31 0l37 174q195 140 315.5 231.5t222 177.5t153 148t78.5 120.5t27 117.5q0 101 -64 156t-163 55q-178 0 -289 -183l-182 111q194 281 500 281q198 0 322 -112t124 -292q0 -97 -39 -186t-127 -183t-208.5 -188t-303.5 -215h608l-45 -213h-966z" />
<glyph unicode="3" d="M16 293l201 96q48 -105 136.5 -158t197.5 -53q122 0 196 60.5t74 160.5q0 98 -72 153.5t-192 55.5h-92l41 191h160q97 0 159 52.5t62 141.5q0 92 -67.5 142.5t-168.5 50.5q-92 0 -169 -39.5t-128 -102.5l-161 132q84 96 204 154.5t273 58.5q197 0 326.5 -104t129.5 -267 q0 -121 -73 -206t-193 -118q83 -38 140 -121.5t57 -191.5q0 -176 -142 -291t-366 -115q-188 0 -327.5 85.5t-205.5 232.5z" />
<glyph unicode="4" d="M10 307l39 182q157 145 275 315t175 311.5t62 248.5h238q-2 -158 -149.5 -420.5t-348.5 -437.5h397q2 9 47.5 181t61.5 243h209l-90 -424h190l-43 -199h-188l-66 -307h-231l65 307h-643z" />
<glyph unicode="5" d="M16 313l203 84q38 -107 122 -161t189 -54q128 0 216 74.5t88 200.5q0 113 -72.5 183.5t-198.5 70.5q-161 0 -264 -111l-127 82l182 682h826l-45 -213h-633l-99 -334q40 34 107 54t139 20q183 0 304.5 -123.5t121.5 -306.5q0 -99 -39.5 -188t-108.5 -155t-170 -104.5 t-218 -38.5q-187 0 -326 92t-197 246z" />
<glyph unicode="6" d="M82 477q0 109 34 216t91.5 199.5t138.5 179.5t171 158.5t192 133.5h362q-131 -71 -255.5 -157t-236.5 -191t-159 -195q99 86 250 86q184 0 307 -119.5t123 -314.5q0 -213 -144.5 -355.5t-375.5 -142.5q-222 0 -360 135.5t-138 366.5zM319 434q0 -119 68.5 -187.5 t183.5 -68.5q135 0 211 88.5t76 214.5q0 116 -67.5 181t-182.5 65q-128 0 -208.5 -81t-80.5 -212z" />
<glyph unicode="7" d="M190 1151l46 213h995l-39 -178q-74 -69 -152 -156.5t-167 -209t-162 -248.5t-131.5 -278t-81.5 -294h-258q31 170 107.5 348t174.5 328t193.5 268t187.5 207h-713z" />
<glyph unicode="8" d="M51 383q0 142 88 239.5t230 129.5q-67 43 -111.5 114.5t-44.5 165.5q0 160 126.5 258.5t324.5 98.5q203 0 337 -103t134 -266q0 -117 -71 -199t-187 -119q78 -44 133 -129t55 -200q0 -172 -131 -285t-363 -113q-231 0 -375.5 112t-144.5 296zM291 399q0 -113 76 -171 t196 -58q122 0 194 61t72 172q0 115 -75.5 173.5t-192.5 58.5q-123 0 -196.5 -62.5t-73.5 -173.5zM444 1001q0 -95 67.5 -144.5t164.5 -49.5t159 50.5t62 141.5q0 98 -67.5 146.5t-161.5 48.5q-98 0 -161 -51.5t-63 -141.5z" />
<glyph unicode="9" d="M139 891q0 213 144.5 355.5t375.5 142.5q222 0 360 -135.5t138 -366.5q0 -135 -50.5 -266.5t-139.5 -243t-198 -205t-239 -172.5h-362q207 113 394.5 262t258.5 281q-102 -86 -252 -86q-184 0 -307 119.5t-123 314.5zM383 883q0 -116 67 -181t183 -65q127 0 207 81 t80 212q0 119 -68.5 187.5t-183.5 68.5q-134 0 -209.5 -88.5t-75.5 -214.5z" />
<glyph unicode=":" horiz-adv-x="612" d="M53 0l53 252h254l-53 -252h-254zM229 823l52 252h256l-54 -252h-254z" />
<glyph unicode=";" horiz-adv-x="614" d="M-8 -227q68 32 112 81t58 107l8 39h-117l53 252h254l-49 -238q-26 -123 -89 -203.5t-179 -138.5zM227 823l54 252h256l-54 -252h-256z" />
<glyph unicode="&#x3c;" d="M213 629l686 583l123 -143l-551 -465q41 -52 112.5 -143t130.5 -166.5t111 -142.5l-147 -115z" />
<glyph unicode="=" d="M47 322l41 190h985l-41 -190h-985zM135 735l41 189h983l-39 -189h-985z" />
<glyph unicode="&#x3e;" d="M190 178l551 467l-352 451l148 116l462 -594l-686 -581z" />
<glyph unicode="?" horiz-adv-x="1138" d="M215 1208q209 181 461 181q180 0 301 -103t121 -272q0 -128 -65.5 -231.5t-177 -164t-251.5 -73.5l-24 -119h-218l64 303q58 -10 94 -10q141 0 237.5 78.5t96.5 199.5q0 88 -57.5 138.5t-163.5 50.5q-160 0 -305 -127zM264 0l53 252h246l-53 -252h-246z" />
<glyph unicode="@" horiz-adv-x="1808" d="M129 539q0 168 66 323.5t180.5 271.5t280 185.5t352.5 69.5q161 0 295.5 -51.5t224 -141.5t139 -211.5t49.5 -261.5q0 -223 -114 -368.5t-293 -145.5q-76 0 -133.5 31.5t-79.5 101.5q-109 -137 -275 -137q-145 0 -226 100t-81 256q0 190 113.5 323.5t281.5 133.5 q82 0 144 -35t98 -92l25 110h180l-115 -544q-6 -24 -6 -47q0 -82 92 -82q113 0 183.5 116t70.5 279q0 240 -156.5 391.5t-420.5 151.5q-160 0 -298 -60t-230.5 -160.5t-144.5 -231.5t-52 -273q0 -121 38 -225.5t110 -182t182 -122t247 -44.5q95 0 188 22t162 66l49 -110 q-197 -101 -409 -101q-158 0 -292.5 52.5t-227.5 145t-145 221t-52 276.5zM700 578q0 -94 43.5 -156t126.5 -62q102 0 166 90t64 207q0 86 -43.5 146.5t-130.5 60.5q-104 0 -165 -84.5t-61 -201.5z" />
<glyph unicode="A" horiz-adv-x="1339" d="M-111 0l816 1364h274l233 -1364h-247l-52 352h-555l-202 -352h-267zM463 549h428l-84 606z" />
<glyph unicode="B" horiz-adv-x="1368" d="M49 0l291 1364h526q192 0 313 -95t121 -249q0 -119 -72 -200t-188 -115q82 -38 138.5 -121.5t56.5 -188.5q0 -170 -141.5 -282.5t-362.5 -112.5h-682zM326 207h401q120 0 192 57.5t72 155.5q0 94 -70 145t-190 51h-317zM455 811h379q100 0 163.5 46.5t63.5 135.5 q0 80 -56.5 122t-154.5 42h-322z" />
<glyph unicode="C" horiz-adv-x="1380" d="M113 623q0 209 94 384.5t262.5 278.5t376.5 103q191 0 328 -86.5t210 -223.5l-194 -116q-46 101 -134.5 159t-211.5 58q-143 0 -256 -76.5t-172.5 -203.5t-59.5 -279q0 -195 100 -316t275 -121q221 0 354 191l170 -133q-205 -267 -534 -267q-140 0 -255.5 50t-192 137 t-118.5 205.5t-42 255.5z" />
<glyph unicode="D" horiz-adv-x="1482" d="M51 0l289 1364h444q151 0 271 -47.5t195.5 -130.5t115 -191.5t39.5 -234.5q0 -156 -51 -294t-144 -242t-234 -164t-310 -60h-615zM330 213h348q113 0 205.5 43t152.5 117.5t92.5 172t32.5 208.5q0 184 -95 290.5t-286 106.5h-250z" />
<glyph unicode="E" horiz-adv-x="1263" d="M49 0l291 1364h971l-45 -213h-738l-73 -336h643l-41 -197h-643l-86 -405h757l-45 -213h-991z" />
<glyph unicode="F" horiz-adv-x="1226" d="M49 0l291 1364h981l-45 -213h-746l-75 -350h641l-41 -197h-643l-127 -604h-236z" />
<glyph unicode="G" horiz-adv-x="1497" d="M113 631q0 157 56 297t153 241.5t235 160.5t295 59q190 0 327.5 -81t217.5 -223l-195 -112q-48 97 -139 152t-213 55q-146 0 -259.5 -75.5t-174 -201.5t-60.5 -280q0 -198 103 -321.5t293 -123.5q166 0 279.5 97.5t137.5 242.5h-383l41 197h576q12 -36 12 -103 q0 -85 -27 -173t-83.5 -171.5t-134.5 -148.5t-190 -104.5t-241 -39.5q-120 0 -221.5 34t-175.5 94.5t-126 143t-77.5 180t-25.5 204.5z" />
<glyph unicode="H" horiz-adv-x="1486" d="M49 0l291 1364h231l-114 -539h665l115 539h236l-289 -1364h-238l133 614h-665l-131 -614h-234z" />
<glyph unicode="I" horiz-adv-x="587" d="M49 0l291 1364h233l-290 -1364h-234z" />
<glyph unicode="J" horiz-adv-x="1024" d="M-63 211l190 108q26 -67 83 -104t134 -37q47 0 84.5 14.5t63.5 38.5t47 60.5t33.5 74t23.5 85.5l192 913h236l-203 -956q-42 -201 -160.5 -317t-320.5 -116q-148 0 -252 63.5t-151 172.5z" />
<glyph unicode="K" horiz-adv-x="1335" d="M49 0l291 1364h233l-145 -678l725 678h299l-637 -594l406 -770h-263l-317 621l-281 -259l-77 -362h-234z" />
<glyph unicode="L" horiz-adv-x="1153" d="M49 0l291 1364h233l-245 -1151h719l-46 -213h-952z" />
<glyph unicode="M" horiz-adv-x="1798" d="M49 0l291 1364h334l151 -1073l613 1073h346l-289 -1364h-227l237 1120l-637 -1120h-194l-160 1118l-238 -1118h-227z" />
<glyph unicode="N" horiz-adv-x="1486" d="M49 0l291 1364h274l414 -1042l221 1042h224l-289 -1364h-262l-422 1067l-228 -1067h-223z" />
<glyph unicode="O" horiz-adv-x="1536" d="M113 623q0 157 55 298t151 244t232.5 163.5t292.5 60.5q142 0 259 -50t194.5 -138t120 -206.5t42.5 -255.5q0 -209 -93.5 -384t-261.5 -277.5t-376 -102.5q-142 0 -259.5 50.5t-195 138.5t-119.5 206t-42 253zM358 616q0 -192 98 -311t277 -119q141 0 252.5 76.5 t171.5 204.5t60 281q0 192 -98 311t-277 119q-142 0 -253.5 -76.5t-171 -204t-59.5 -281.5z" />
<glyph unicode="P" horiz-adv-x="1308" d="M49 0l291 1364h518q222 0 344.5 -108t122.5 -295q0 -207 -147 -337t-400 -130h-389l-104 -494h-236zM432 705h371q134 0 205 69t71 180q0 95 -60 146t-181 51h-310z" />
<glyph unicode="Q" horiz-adv-x="1546" d="M113 623q0 157 55 298t151 244t232.5 163.5t292.5 60.5q142 0 259 -50t194.5 -138t120 -206.5t42.5 -255.5q0 -183 -72.5 -340.5t-201.5 -261.5l121 -172l-172 -119l-125 187q-135 -58 -281 -58q-142 0 -259.5 50.5t-195 138.5t-119.5 206t-42 253zM358 616 q0 -193 97.5 -312.5t277.5 -119.5q71 0 152 31l-115 174l160 109l121 -174q79 76 122.5 186t43.5 238q0 192 -98 311t-277 119q-142 0 -253.5 -76.5t-171 -204t-59.5 -281.5z" />
<glyph unicode="R" horiz-adv-x="1372" d="M49 0l291 1364h561q193 0 311.5 -110t118.5 -279q0 -157 -104.5 -271.5t-274.5 -146.5l242 -557h-252l-221 526h-326l-110 -526h-236zM438 723h373q121 0 197.5 66.5t76.5 173.5q0 90 -54.5 139t-153.5 49h-349z" />
<glyph unicode="S" horiz-adv-x="1232" d="M14 289l191 104q54 -111 162.5 -165t236.5 -54q121 0 198 54.5t77 146.5q0 55 -38 95t-80.5 60.5t-152.5 61.5q-13 5 -20 8q-74 28 -126.5 52.5t-105.5 60.5t-85.5 75t-53 93.5t-20.5 119.5q0 175 138.5 281.5t348.5 106.5q165 0 298.5 -70.5t217.5 -198.5l-184 -110 q-48 84 -136.5 131t-203.5 47q-107 0 -176.5 -43.5t-69.5 -124.5q0 -26 7.5 -47.5t26.5 -40.5t37 -32.5t54 -30.5t60.5 -27t72.5 -29q84 -32 141.5 -58.5t115.5 -64.5t92 -79t55.5 -98t21.5 -126q0 -84 -37 -159t-104 -131.5t-168.5 -89t-222.5 -32.5q-194 0 -344 83.5 t-224 230.5z" />
<glyph unicode="T" horiz-adv-x="1206" d="M164 1151l45 213h1114l-45 -213h-442l-244 -1151h-234l244 1151h-438z" />
<glyph unicode="U" horiz-adv-x="1445" d="M131 393q0 71 21 160l174 811h233l-178 -834q-14 -68 -14 -100q0 -112 74 -177t206 -65q155 0 253.5 83.5t133.5 246.5l180 846h234l-186 -877q-53 -245 -217.5 -378.5t-417.5 -133.5q-220 0 -358 113.5t-138 304.5z" />
<glyph unicode="V" horiz-adv-x="1282" d="M164 1364h250l143 -1100l612 1100h256l-790 -1364h-260z" />
<glyph unicode="W" horiz-adv-x="1937" d="M225 1364h238l31 -1061l516 1061h225l68 -1065l477 1065h264l-662 -1364h-260l-61 1030l-500 -1030h-264z" />
<glyph unicode="X" horiz-adv-x="1335" d="M-111 0l656 717l-342 647h260l248 -496l444 496h297l-616 -664l368 -700h-260l-276 539l-484 -539h-295z" />
<glyph unicode="Y" horiz-adv-x="1261" d="M145 1364h258l248 -602l484 602h284l-688 -823l-115 -541h-235l117 551z" />
<glyph unicode="Z" horiz-adv-x="1243" d="M-43 0l41 193l928 958h-695l45 213h1024l-40 -184l-936 -967h749l-47 -213h-1069z" />
<glyph unicode="[" horiz-adv-x="641" d="M-16 -221l358 1683h449l-33 -157h-258l-289 -1368h256l-35 -158h-448z" />
<glyph unicode="\" horiz-adv-x="811" d="M272 1462h168l99 -1683h-170z" />
<glyph unicode="]" horiz-adv-x="643" d="M-137 -221l33 158h258l290 1368h-258l35 157h449l-357 -1683h-450z" />
<glyph unicode="^" d="M127 905l549 459h168l373 -485l-148 -119l-321 422l-502 -422z" />
<glyph unicode="_" horiz-adv-x="1198" d="M-182 -256l22 102h1198l-22 -102h-1198z" />
<glyph unicode="`" horiz-adv-x="649" d="M236 1470l200 33q50 -105 176 -258l-86 -59q-90 49 -173.5 129.5t-116.5 154.5z" />
<glyph unicode="a" horiz-adv-x="1189" d="M20 285q0 78 26.5 137.5t66 95t98.5 60t112 35t119 16.5q21 2 61 5.5t61 5.5t55 6t52.5 9t44 12.5t39 17.5t27 23.5t19.5 31.5t6 40q0 49 -32.5 79t-75 40t-95.5 10q-187 0 -346 -108l-82 157q205 142 451 142q183 0 292 -76.5t109 -216.5q0 -42 -24 -164l-78 -358 q-11 -46 -11 -70q0 -30 19 -46.5t53 -16.5q42 0 70 22l28 -158q-59 -34 -153 -34q-194 0 -217 161q-128 -168 -353 -168q-157 0 -249.5 80.5t-92.5 229.5zM246 303q0 -151 178 -151q112 0 197 69t116 205l31 147q-45 -45 -108 -64t-166 -32q-32 -4 -49 -6.5t-44.5 -7.5 t-43 -10.5t-36 -14.5t-32 -21.5t-22.5 -28.5t-16 -37.5t-5 -47.5z" />
<glyph unicode="b" horiz-adv-x="1304" d="M27 0l309 1462h221l-113 -522q142 158 338 158q191 0 308.5 -139.5t117.5 -356.5q0 -169 -72.5 -312.5t-202.5 -229t-288 -85.5q-245 0 -358 209l-39 -184h-221zM354 475q0 -134 69.5 -218.5t199.5 -84.5q107 0 188.5 61.5t121.5 156t40 204.5q0 135 -65 221t-195 86 q-81 0 -150.5 -37t-114 -97.5t-69.5 -136.5t-25 -155z" />
<glyph unicode="c" horiz-adv-x="1114" d="M74 483q0 168 74 308.5t208.5 223.5t300.5 83q155 0 262 -70t168 -178l-178 -105q-84 160 -250 160q-105 0 -186.5 -59t-123.5 -154t-42 -207q0 -140 67.5 -227.5t194.5 -87.5q154 0 273 154l143 -134q-176 -215 -432 -215q-218 0 -348.5 142.5t-130.5 365.5z" />
<glyph unicode="d" horiz-adv-x="1306" d="M72 471q0 126 43 241.5t116.5 201t178.5 136t223 50.5q246 0 360 -211l121 573h221l-309 -1462h-221l29 135q-138 -160 -334 -160q-194 0 -311 139.5t-117 356.5zM307 479q0 -134 65 -220.5t193 -86.5q109 0 193 63.5t126 159.5t42 203q0 134 -69.5 218.5t-199.5 84.5 q-108 0 -189.5 -61.5t-121 -156t-39.5 -204.5z" />
<glyph unicode="e" horiz-adv-x="1218" d="M72 483q0 124 42.5 236.5t118 196.5t186 134t238.5 50q219 0 348.5 -131.5t129.5 -325.5q0 -69 -25 -160h-801v-32q0 -128 80 -204.5t213 -76.5q90 0 170 35t139 100l138 -135q-189 -195 -461 -195q-244 0 -380 141.5t-136 366.5zM332 639h581q2 8 2 27q0 116 -72.5 186 t-187.5 70q-123 0 -209.5 -77.5t-113.5 -205.5z" />
<glyph unicode="f" horiz-adv-x="735" d="M96 0l191 901h-174l37 174h174l26 121q32 147 123.5 218t249.5 71q104 0 190 -37l-69 -176q-22 14 -61 24.5t-72 10.5q-119 0 -144 -127l-22 -105h237l-37 -174h-237l-191 -901h-221z" />
<glyph unicode="g" horiz-adv-x="1314" d="M-10 -211l133 162q58 -58 153.5 -96.5t202.5 -38.5q144 0 239.5 81.5t127.5 239.5l12 66q-60 -70 -147.5 -108t-186.5 -38q-198 0 -319 131t-121 332q0 159 73 292t200 210.5t280 77.5q113 0 210.5 -51.5t158.5 -153.5l38 180h220l-193 -905q-27 -126 -66 -219.5 t-108 -165.5q-156 -162 -438 -162q-273 0 -469 166zM319 539q0 -128 69 -210.5t198 -82.5q157 0 254.5 113t97.5 270q0 121 -71.5 199.5t-204.5 78.5q-107 0 -187 -53t-118 -135.5t-38 -179.5z" />
<glyph unicode="h" horiz-adv-x="1224" d="M27 0l309 1462h221l-113 -532q151 170 359 170q147 0 229 -87.5t82 -217.5q0 -56 -14 -121l-146 -674h-221l137 641q13 71 13 92q0 77 -45.5 121.5t-132.5 44.5q-119 0 -210.5 -83t-119.5 -216l-127 -600h-221z" />
<glyph unicode="i" horiz-adv-x="528" d="M27 0l227 1075h221l-227 -1075h-221zM291 1249l45 213h221l-45 -213h-221z" />
<glyph unicode="j" horiz-adv-x="528" d="M-344 -287l111 146q42 -49 108 -49q62 0 96.5 47t53.5 133l231 1085h221l-241 -1134q-36 -165 -121 -240.5t-217 -75.5q-154 0 -242 88zM293 1249l45 213h221l-45 -213h-221z" />
<glyph unicode="k" horiz-adv-x="1175" d="M27 0l311 1462h219l-190 -899l585 512h277l-518 -452l340 -623h-250l-264 487l-230 -198l-59 -289h-221z" />
<glyph unicode="l" horiz-adv-x="522" d="M25 0l309 1462h221l-309 -1462h-221z" />
<glyph unicode="m" horiz-adv-x="1873" d="M27 0l227 1075h221l-31 -145q145 170 342 170q111 0 184 -55t99 -144q170 199 387 199q147 0 229 -87.5t82 -217.5q0 -47 -16 -121l-145 -674h-222l138 641q14 58 14 92q0 77 -45 121.5t-129 44.5q-109 0 -195 -83t-112 -216l-127 -600h-223l137 641q12 49 12 92 q0 77 -44.5 121.5t-127.5 44.5q-109 0 -195 -83t-112 -216l-127 -600h-221z" />
<glyph unicode="n" horiz-adv-x="1224" d="M27 0l227 1075h221l-31 -145q151 170 359 170q147 0 229 -87.5t82 -217.5q0 -56 -14 -121l-146 -674h-221l137 641q13 71 13 92q0 77 -45.5 121.5t-132.5 44.5q-119 0 -210.5 -83t-119.5 -216l-127 -600h-221z" />
<glyph unicode="o" horiz-adv-x="1255" d="M76 489q0 169 71.5 307.5t205.5 221t304 82.5q230 0 364 -141.5t134 -372.5q0 -169 -72 -308t-205.5 -221t-302.5 -82q-231 0 -365 141.5t-134 372.5zM309 483q0 -137 68.5 -226t195.5 -89q104 0 185.5 61.5t122.5 158t41 206.5q0 137 -68.5 224t-196.5 87 q-104 0 -185 -61t-122 -156.5t-41 -204.5z" />
<glyph unicode="p" horiz-adv-x="1304" d="M-49 -356l303 1431h221l-31 -135q144 160 338 160q191 0 308.5 -140.5t117.5 -357.5q0 -169 -72.5 -312.5t-202.5 -229t-288 -85.5q-245 0 -358 209l-115 -540h-221zM354 475q0 -134 69.5 -218.5t199.5 -84.5q107 0 188.5 61.5t121.5 156t40 204.5q0 135 -65 222t-195 87 q-81 0 -150.5 -37.5t-114 -98.5t-69.5 -137t-25 -155z" />
<glyph unicode="q" horiz-adv-x="1304" d="M72 471q0 126 43 241.5t116.5 201t178.5 136t223 50.5q246 0 360 -211l39 186h221l-303 -1431h-223l107 491q-138 -160 -334 -160q-194 0 -311 139.5t-117 356.5zM307 479q0 -134 65 -220.5t193 -86.5q109 0 193 63.5t126 159.5t42 203q0 134 -69.5 218.5t-199.5 84.5 q-108 0 -189.5 -61.5t-121 -156t-39.5 -204.5z" />
<glyph unicode="r" horiz-adv-x="827" d="M27 0l227 1075h221l-35 -168q61 88 140.5 137.5t167.5 49.5q93 0 153 -39l-102 -211q-48 30 -115 30q-111 0 -200.5 -88t-121.5 -239l-116 -547h-219z" />
<glyph unicode="s" horiz-adv-x="1075" d="M-12 217l170 96q51 -81 136.5 -122t190.5 -41q100 0 165 38.5t65 106.5q0 21 -5 37.5t-21.5 31.5t-29.5 24t-48.5 23t-56.5 21l-75 25q-48 16 -81 28.5t-75.5 33t-70.5 44t-54 54.5t-38.5 71.5t-12.5 89.5q0 104 60.5 179t154.5 109t209 34q145 0 261.5 -53.5 t189.5 -133.5l-154 -114q-52 57 -131.5 92t-169.5 35q-83 0 -141.5 -30.5t-58.5 -90.5q0 -55 48 -87.5t150 -66.5q39 -13 57 -18.5t56 -19.5t58 -24t52 -27.5t49.5 -33.5t40 -39.5t33.5 -48t19 -56.5t8 -67q0 -150 -123 -246t-334 -96q-165 0 -294 63t-199 179z" />
<glyph unicode="t" horiz-adv-x="841" d="M100 901l37 174h176l62 289h221l-61 -289h327l-39 -174h-325l-119 -563q-8 -33 -8 -64q0 -50 31 -76t85 -26q93 0 156 53l76 -164q-122 -86 -275 -86q-136 0 -219.5 64t-83.5 186q0 30 17 113l118 563h-176z" />
<glyph unicode="u" horiz-adv-x="1224" d="M84 281q0 54 14 122l146 672h221l-137 -641q-13 -54 -13 -92q0 -77 46 -121.5t133 -44.5q117 0 208.5 83t120.5 216l127 600h221l-227 -1075h-223l33 145q-148 -170 -359 -170q-147 0 -229 88t-82 218z" />
<glyph unicode="v" horiz-adv-x="1089" d="M109 1075h233l115 -819l458 819h254l-643 -1075h-231z" />
<glyph unicode="w" horiz-adv-x="1628" d="M162 1075h223l23 -794l399 794h201l61 -796l358 796h248l-522 -1075h-235l-60 793l-401 -793h-234z" />
<glyph unicode="x" horiz-adv-x="1124" d="M-100 0l516 569l-254 506h248l170 -373l313 373h274l-471 -520l275 -555h-252l-187 410l-354 -410h-278z" />
<glyph unicode="y" horiz-adv-x="1091" d="M-139 -305l106 155q50 -40 113 -40q60 0 105 38.5t89 108.5l45 68l-213 1050h240l135 -784l437 784h249l-655 -1118q-51 -88 -90.5 -144t-89.5 -102.5t-107 -67t-129 -20.5q-145 0 -235 72z" />
<glyph unicode="z" horiz-adv-x="1052" d="M-43 0l37 170l713 711h-539l41 194h842l-35 -168l-713 -714h580l-41 -193h-885z" />
<glyph unicode="{" horiz-adv-x="749" d="M18 543l35 155h90q80 0 124.5 48.5t64.5 142.5l55 270q32 155 132.5 233t258.5 78h125l-33 -157h-79q-97 0 -145.5 -46t-72.5 -153l-51 -233q-24 -112 -80.5 -174t-150.5 -89q123 -55 123 -202q0 -43 -13 -103l-39 -188q-12 -58 -12 -84q0 -113 146 -113h82l-35 -157 h-115q-128 0 -201 63t-73 172q0 57 12 111l49 235q12 58 12 82q0 109 -127 109h-82z" />
<glyph unicode="|" horiz-adv-x="481" d="M-16 -221l358 1683h168l-360 -1683h-166z" />
<glyph unicode="}" horiz-adv-x="749" d="M-143 -229l32 157h80q97 0 145 45.5t72 153.5l52 233q24 112 80.5 174t150.5 89q-123 55 -123 202q0 47 12 103l39 188q13 63 13 84q0 113 -146 113h-82l35 157h115q128 0 201 -63t73 -172q0 -57 -12 -111l-49 -235q-13 -63 -13 -82q0 -109 127 -109h82l-34 -155h-91 q-80 0 -124 -48.5t-64 -142.5l-55 -270q-32 -155 -132.5 -233t-258.5 -78h-125z" />
<glyph unicode="~" horiz-adv-x="1222" d="M92 539q160 264 361 264q78 0 180 -66q83 -52 115.5 -67t64.5 -15q114 0 221 148l113 -78q-160 -264 -361 -264q-42 0 -81.5 13t-98.5 50q-79 52 -113 68t-65 16q-116 0 -223 -147z" />
<glyph unicode="&#xa1;" horiz-adv-x="577" d="M-23 -289l68 322l207 614h100l-61 -614l-68 -322h-246zM211 821l55 254h246l-53 -254h-248z" />
<glyph unicode="&#xa2;" d="M100 483q0 170 75.5 310.5t211 222.5t303.5 82l35 166h115l-39 -179q202 -43 311 -235l-176 -102q-67 119 -174 149l-156 -729q146 5 262 154l142 -132q-176 -215 -430 -215h-15l-35 -168h-114l39 183q-165 38 -260 171t-95 322zM326 485q0 -111 43.5 -192t126.5 -111 l153 723q-147 -15 -235 -136t-88 -284z" />
<glyph unicode="&#xa3;" d="M-4 137q278 155 278 344q0 34 -8 88h-217l31 152h151q-34 144 -34 221q0 100 40 185t107.5 142t158.5 88.5t193 31.5q293 0 484 -263l-181 -131q-49 77 -126.5 129t-176.5 52q-113 0 -187.5 -68.5t-74.5 -192.5q0 -76 31 -194h391l-31 -152h-331q2 -12 2 -26 q0 -91 -44.5 -177t-123.5 -147q81 35 172 35q56 0 150.5 -32t133.5 -32q48 0 81 32t53 104l186 -84q-95 -267 -313 -267q-71 0 -203 44t-211 44q-141 0 -291 -88z" />
<glyph unicode="&#xa4;" d="M51 281l189 157q-31 67 -31 148q0 152 94 270l-102 135l149 115l101 -133q92 45 186 45q125 0 217 -66l186 156l121 -143l-190 -160q30 -67 30 -152q0 -154 -96 -270l105 -131l-150 -115l-100 131q-85 -45 -189 -45q-125 0 -217 66l-182 -152zM373 594q0 -92 55 -152.5 t150 -60.5q113 0 187.5 78t74.5 188q0 93 -55.5 153t-151.5 60q-113 0 -186.5 -77.5t-73.5 -188.5z" />
<glyph unicode="&#xa5;" d="M68 319l24 119h354l23 111l-20 53h-322l25 117h262l-205 645h256l158 -598l407 598h281l-484 -645h260l-24 -117h-322l-41 -51l-22 -113h350l-24 -119h-351l-69 -319h-232l68 319h-352z" />
<glyph unicode="&#xa6;" horiz-adv-x="468" d="M-12 -221l137 647h145l-137 -647h-145zM207 815l139 647h146l-140 -647h-145z" />
<glyph unicode="&#xa7;" horiz-adv-x="1216" d="M6 -82l125 145q142 -139 320 -139q169 0 266 115l-129 100q-211 164 -314.5 326t-103.5 340q0 119 42.5 226t117.5 186.5t186.5 126.5t241.5 47q256 0 436 -183l-127 -145q-139 139 -319 139q-169 0 -267 -119l131 -96q416 -306 416 -668q0 -159 -71 -291t-206.5 -212 t-308.5 -80q-257 0 -436 182zM373 811q0 -71 20.5 -138t50.5 -118.5t80 -108.5t91 -95t102 -89l92 -76q18 74 18 129q0 71 -21 138t-50 118t-80 108t-91.5 94.5t-103.5 90.5l-90 74q-18 -50 -18 -127z" />
<glyph unicode="&#xa8;" horiz-adv-x="649" d="M170 1225l41 186h180l-39 -186h-182zM575 1225l41 186h183l-41 -186h-183z" />
<glyph unicode="&#xa9;" horiz-adv-x="1691" d="M145 682q0 117 36.5 227t103 198t155 154.5t198 103t226.5 36.5t226.5 -36.5t198 -103t155 -154.5t103 -198t36.5 -227q0 -116 -36.5 -226t-103 -198.5t-155 -155t-198.5 -103t-226 -36.5t-226 36.5t-198.5 103t-155 155t-103 198.5t-36.5 226zM268 682q0 -122 47 -232 t127 -190t190 -127t232 -47t232 47t190 127t127 190t47 232t-47.5 233t-127.5 191t-190 127t-231 47t-231 -47t-190 -127t-127.5 -191t-47.5 -233zM446 682q0 174 123 297t297 123q111 0 206 -55t159 -158l-137 -92q-39 66 -98 100.5t-128 34.5q-103 0 -176.5 -73.5 t-73.5 -176.5q0 -102 74 -177t176 -75q69 0 127.5 36.5t98.5 102.5l139 -90q-61 -103 -157.5 -159t-209.5 -56q-173 0 -296.5 122.5t-123.5 295.5z" />
<glyph unicode="&#xaa;" horiz-adv-x="905" d="M150 858q0 58 21 99.5t56 62.5t79 35t90.5 18t90.5 10t79 13t56 24.5t21 46.5q0 41 -35.5 58.5t-85.5 17.5q-112 0 -219 -69l-55 118q134 88 293 88q74 0 132 -17t97.5 -60t40.5 -107q0 -23 -14 -100l-49 -228q-9 -36 -9 -45q0 -17 11 -28t30 -11q20 0 43 15l17 -113 q-33 -22 -101 -22q-48 0 -84.5 19t-48.5 54q-8 15 -10 27q-84 -107 -227 -107q-99 0 -159 52.5t-60 148.5zM317 872q0 -45 29 -66.5t74 -21.5q65 0 112.5 40.5t65.5 117.5l18 88q-25 -23 -66.5 -35t-80 -17t-74 -13t-57 -30.5t-21.5 -62.5z" />
<glyph unicode="&#xab;" horiz-adv-x="991" d="M51 502l17 78l348 397l108 -100l-288 -361l176 -346l-136 -72zM451 502l16 78l385 397l104 -107l-321 -354l166 -346l-135 -72z" />
<glyph unicode="&#xac;" horiz-adv-x="1275" d="M121 528l41 189h985l-127 -594h-186l86 405h-799z" />
<glyph unicode="&#xad;" horiz-adv-x="811" d="M94 477l43 197h568l-41 -197h-570z" />
<glyph unicode="&#xae;" horiz-adv-x="1038" d="M205 997q0 162 114.5 277t276.5 115q161 0 276 -115.5t115 -276.5q0 -162 -114.5 -276.5t-276.5 -114.5q-163 0 -277 114t-114 277zM258 997q0 -139 99 -238.5t239 -99.5t239 99.5t99 238.5t-99 238.5t-239 99.5t-239 -99.5t-99 -238.5zM436 797v403h189q66 0 104.5 -35 t38.5 -92q0 -44 -21 -75.5t-57 -43.5l88 -157h-98l-70 143h-86v-143h-88zM524 1010h99q23 0 40 17t17 44q0 25 -17 41t-40 16h-99v-118z" />
<glyph unicode="&#xaf;" horiz-adv-x="667" d="M156 1245l28 137h631l-29 -137h-630z" />
<glyph unicode="&#xb0;" horiz-adv-x="808" d="M182 1071q0 131 93 224.5t223 93.5t222.5 -93.5t92.5 -224.5q0 -129 -92.5 -222t-222.5 -93t-223 93t-93 222zM326 1071q0 -69 51 -120.5t121 -51.5t121 51.5t51 120.5q0 71 -51 122.5t-121 51.5t-121 -51.5t-51 -122.5z" />
<glyph unicode="&#xb1;" d="M-12 0l41 188h985l-41 -188h-985zM135 696l39 189h397l82 381h191l-82 -381h397l-39 -189h-399l-80 -379h-188l79 379h-397z" />
<glyph unicode="&#xb2;" horiz-adv-x="780" d="M115 684l28 125q298 212 398 306.5t100 178.5q0 60 -37.5 91.5t-95.5 31.5q-108 0 -176 -114l-131 77q128 189 329 189q130 0 211.5 -72t81.5 -190q0 -119 -94.5 -224t-310.5 -243h362l-35 -156h-630z" />
<glyph unicode="&#xb3;" horiz-adv-x="790" d="M113 877l147 67q58 -127 199 -127q73 0 116 34.5t43 90.5t-41 87.5t-112 31.5h-59l30 139h99q57 0 93 31t36 80q0 52 -38.5 81t-99.5 29q-110 0 -182 -86l-119 90q120 144 316 144q127 0 213 -66.5t86 -171.5q0 -77 -47.5 -130.5t-124.5 -74.5q54 -24 88.5 -77t34.5 -121 q0 -112 -91.5 -186t-236.5 -74q-124 0 -215.5 55.5t-134.5 153.5z" />
<glyph unicode="&#xb4;" horiz-adv-x="649" d="M313 1247q135 135 215 256l195 -53q-40 -73 -139 -148.5t-201 -117.5z" />
<glyph unicode="&#xb5;" d="M-80 -356l303 1431h221l-139 -651q-12 -49 -12 -94q0 -61 29.5 -101.5t85.5 -52.5q45 -10 84 -2q107 12 181.5 100t104.5 228l121 573h223l-176 -813q-8 -36 -8 -55q0 -55 61 -55q36 0 58 22l-8 -166q-61 -26 -119 -26t-98.5 25t-47.5 73q-34 18 -43 59 q-127 -164 -313 -164q-123 0 -197 91l-90 -422h-221z" />
<glyph unicode="&#xb6;" horiz-adv-x="1210" d="M168 883q0 142 70 253.5t183.5 169.5t248.5 58h508l-330 -1550h-105l301 1413h-126l-300 -1413h-153l147 694h-82q-156 0 -259 105t-103 270z" />
<glyph unicode="&#xb7;" horiz-adv-x="548" d="M127 625q0 61 45 105t107 44q61 0 105 -44t44 -105q0 -63 -43.5 -107.5t-105.5 -44.5t-107 44.5t-45 107.5z" />
<glyph unicode="&#xb8;" horiz-adv-x="649" d="M-90 -233l70 75q22 -28 59.5 -47.5t73.5 -19.5q43 0 70.5 27t27.5 75q0 83 -88 174h86q68 -43 113 -100t45 -125q0 -82 -62.5 -129t-154.5 -47q-73 0 -136.5 31.5t-103.5 85.5z" />
<glyph unicode="&#xb9;" horiz-adv-x="679" d="M106 684l31 143h205l115 539q-99 -41 -215 -53l-13 129q207 30 312 112h129l-156 -727h197l-33 -143h-572z" />
<glyph unicode="&#xba;" horiz-adv-x="884" d="M170 993q0 165 106.5 276t274.5 111q152 0 241 -91t89 -240q0 -167 -105.5 -279.5t-273.5 -112.5q-152 0 -242 92.5t-90 243.5zM346 987q0 -82 40.5 -134t115.5 -52q92 0 147.5 77t55.5 177q0 81 -39.5 132.5t-114.5 51.5q-92 0 -148.5 -76t-56.5 -176z" />
<glyph unicode="&#xbb;" horiz-adv-x="991" d="M8 203l320 354l-164 348l133 72l217 -406l-16 -77l-385 -396zM440 197l287 360l-176 348l137 72l225 -406l-16 -77l-348 -396z" />
<glyph unicode="&#xbc;" horiz-adv-x="2004" d="M135 494l29 143h207l114 539q-108 -43 -215 -54l-12 129q205 29 311 113h129l-155 -727h194l-30 -143h-572zM379 0l1118 1364h176l-1120 -1364h-174zM1124 188l27 131q139 131 222.5 287.5t86.5 263.5h176q-2 -99 -90.5 -262.5t-210.5 -275.5h228q52 181 71 264h152 l-55 -264h116l-30 -144h-117l-39 -188h-172l41 188h-406z" />
<glyph unicode="&#xbd;" horiz-adv-x="2004" d="M125 494l29 143h206l115 539q-108 -43 -215 -54l-12 129q205 29 311 113h129l-156 -727h195l-31 -143h-571zM369 0l1118 1364h176l-1120 -1364h-174zM1147 0l29 127q297 209 397 304t100 179q0 60 -37.5 91.5t-95.5 31.5q-109 0 -176 -115l-131 80q129 187 330 187 q130 0 211 -72t81 -190q0 -120 -96 -228t-309 -239h362l-34 -156h-631z" />
<glyph unicode="&#xbe;" horiz-adv-x="2004" d="M129 686l150 68q27 -63 79 -95t119 -32q72 0 115 34.5t43 90.5t-41 87t-111 31h-59l29 140h98q57 0 93 30.5t36 79.5q0 52 -38 81.5t-99 29.5q-108 0 -183 -86l-118 90q123 143 315 143q127 0 213 -66t86 -171q0 -76 -47 -130t-123 -75q52 -25 87.5 -78.5t35.5 -120.5 q0 -112 -92 -186t-238 -74q-124 0 -215.5 55.5t-134.5 153.5zM387 0l1118 1364h176l-1120 -1364h-174zM1133 188l26 131q139 131 222.5 287.5t86.5 263.5h177q-2 -99 -91 -262.5t-211 -275.5h228q52 181 71 264h152l-55 -264h116l-30 -144h-117l-39 -188h-172l41 188h-405z " />
<glyph unicode="&#xbf;" horiz-adv-x="1150" d="M47 61q0 128 65.5 231.5t177 164t251.5 73.5l24 119h217l-63 -303q-58 10 -94 10q-141 0 -237.5 -78.5t-96.5 -199.5q0 -88 57.5 -138.5t163.5 -50.5q160 0 305 127l113 -149q-208 -180 -461 -180q-180 0 -301 102.5t-121 271.5zM582 823l53 252h246l-54 -252h-245z" />
<glyph unicode="&#xc0;" horiz-adv-x="1339" d="M-111 0l816 1364h274l233 -1364h-247l-52 352h-555l-202 -352h-267zM463 549h428l-84 606zM592 1729l201 32q50 -105 176 -258l-86 -59q-90 49 -174 130t-117 155z" />
<glyph unicode="&#xc1;" horiz-adv-x="1339" d="M-111 0l816 1364h274l233 -1364h-247l-52 352h-555l-202 -352h-267zM463 549h428l-84 606zM758 1505q135 135 215 256l194 -53q-40 -73 -139 -148.5t-201 -117.5z" />
<glyph unicode="&#xc2;" horiz-adv-x="1339" d="M-111 0l816 1364h274l233 -1364h-247l-52 352h-555l-202 -352h-267zM463 549h428l-84 606zM526 1532q142 83 293 211h168q98 -148 197 -219l-60 -80q-71 23 -138 67.5t-103 87.5q-42 -40 -132 -84.5t-184 -70.5z" />
<glyph unicode="&#xc3;" horiz-adv-x="1339" d="M-111 0l816 1364h274l233 -1364h-247l-52 352h-555l-202 -352h-267zM463 549h428l-84 606zM510 1528q39 82 98.5 132t130.5 50q50 0 144 -40t133 -40q78 0 141 84l82 -61q-37 -82 -97 -132.5t-132 -50.5q-50 0 -143.5 39t-131.5 39q-79 0 -141 -82z" />
<glyph unicode="&#xc4;" horiz-adv-x="1339" d="M-111 0l816 1364h274l233 -1364h-247l-52 352h-555l-202 -352h-267zM463 549h428l-84 606zM565 1483l41 186h180l-38 -186h-183zM971 1483l41 186h182l-41 -186h-182z" />
<glyph unicode="&#xc5;" horiz-adv-x="1331" d="M-115 0l797 1337q-57 54 -57 136q0 90 67 154.5t164 64.5q95 0 157 -61.5t62 -149.5q0 -51 -25 -94t-67 -68l225 -1319h-247l-52 352h-555l-202 -352h-267zM459 549h428l-84 606zM739 1470q0 -45 30 -75.5t77 -30.5q49 0 80.5 34.5t31.5 82.5q0 46 -29.5 78t-74.5 32 q-49 0 -82 -35.5t-33 -85.5z" />
<glyph unicode="&#xc6;" horiz-adv-x="1859" d="M-145 0l972 1364h1080l-45 -213h-633l-72 -336h539l-41 -197h-541l-88 -405h657l-47 -213h-888l73 352h-459l-245 -352h-262zM500 549h364l131 620h-67z" />
<glyph unicode="&#xc7;" horiz-adv-x="1386" d="M115 623q0 209 94 384.5t262.5 278.5t376.5 103q193 0 331 -87.5t210 -230.5l-201 -104q-46 98 -133.5 155.5t-208.5 57.5q-143 0 -256 -76.5t-172.5 -203.5t-59.5 -279q0 -195 100 -316t275 -121q221 0 354 191l170 -133q-205 -267 -532 -267q-33 0 -49 2 q67 -67 67 -151q0 -82 -62.5 -129t-154.5 -47q-73 0 -136 31t-103 86l69 75q22 -28 59.5 -47.5t73.5 -19.5q43 0 71 27t28 75q0 56 -45 123q-201 55 -314.5 223.5t-113.5 399.5z" />
<glyph unicode="&#xc8;" horiz-adv-x="1263" d="M49 0l291 1364h971l-45 -213h-738l-73 -336h643l-41 -197h-643l-86 -405h757l-45 -213h-991zM582 1731l200 32q50 -105 176 -258l-86 -59q-89 49 -173 130t-117 155z" />
<glyph unicode="&#xc9;" horiz-adv-x="1263" d="M49 0l291 1364h971l-45 -213h-738l-73 -336h643l-41 -197h-643l-86 -405h757l-45 -213h-991zM721 1507q135 135 215 256l194 -53q-40 -73 -138.5 -148.5t-200.5 -117.5z" />
<glyph unicode="&#xca;" horiz-adv-x="1263" d="M49 0l291 1364h971l-45 -213h-738l-73 -336h643l-41 -197h-643l-86 -405h757l-45 -213h-991zM530 1534q142 83 293 211h168q98 -148 197 -219l-60 -80q-71 23 -137.5 68t-103.5 88q-42 -40 -132 -85t-184 -71z" />
<glyph unicode="&#xcb;" horiz-adv-x="1263" d="M49 0l291 1364h971l-45 -213h-738l-73 -336h643l-41 -197h-643l-86 -405h757l-45 -213h-991zM563 1485l41 186h180l-39 -186h-182zM969 1485l41 186h182l-41 -186h-182z" />
<glyph unicode="&#xcc;" horiz-adv-x="587" d="M49 0l291 1364h233l-290 -1364h-234zM233 1729l201 32q50 -105 176 -258l-86 -59q-90 49 -174 130t-117 155z" />
<glyph unicode="&#xcd;" horiz-adv-x="587" d="M49 0l291 1364h233l-290 -1364h-234zM383 1505q135 135 215 256l195 -53q-40 -73 -139 -148.5t-201 -117.5z" />
<glyph unicode="&#xce;" horiz-adv-x="587" d="M49 0l291 1364h233l-290 -1364h-234zM141 1532q142 83 293 211h168q98 -148 197 -219l-60 -80q-71 23 -138 67.5t-103 87.5q-42 -40 -132 -84.5t-184 -70.5z" />
<glyph unicode="&#xcf;" horiz-adv-x="587" d="M49 0l291 1364h233l-290 -1364h-234zM186 1483l41 186h181l-39 -186h-183zM592 1483l41 186h182l-41 -186h-182z" />
<glyph unicode="&#xd0;" horiz-adv-x="1554" d="M39 604l41 187h211l123 573h442q151 0 271 -47.5t195.5 -130.5t115 -191.5t39.5 -234.5q0 -156 -51 -294t-144.5 -242t-234.5 -164t-310 -60h-614l127 604h-211zM401 213h351q113 0 205 43t152 117.5t92 172t32 208.5q0 185 -94.5 291t-286.5 106h-250l-76 -360h344 l-39 -187h-346z" />
<glyph unicode="&#xd1;" horiz-adv-x="1486" d="M49 0l291 1364h274l414 -1042l221 1042h224l-289 -1364h-262l-422 1067l-228 -1067h-223zM586 1528q39 82 98.5 132t130.5 50q50 0 144 -40t133 -40q78 0 141 84l82 -61q-37 -82 -97.5 -132.5t-132.5 -50.5q-50 0 -143 39t-131 39q-79 0 -141 -82z" />
<glyph unicode="&#xd2;" horiz-adv-x="1536" d="M113 623q0 157 55 298t151 244t232.5 163.5t292.5 60.5q142 0 259 -50t194.5 -138t120 -206.5t42.5 -255.5q0 -209 -93.5 -384t-261.5 -277.5t-376 -102.5q-142 0 -259.5 50.5t-195 138.5t-119.5 206t-42 253zM358 616q0 -192 98 -311t277 -119q141 0 252.5 76.5 t171.5 204.5t60 281q0 192 -98 311t-277 119q-142 0 -253.5 -76.5t-171 -204t-59.5 -281.5zM608 1729l201 32q50 -105 176 -258l-86 -59q-90 49 -174 130t-117 155z" />
<glyph unicode="&#xd3;" horiz-adv-x="1536" d="M113 623q0 157 55 298t151 244t232.5 163.5t292.5 60.5q142 0 259 -50t194.5 -138t120 -206.5t42.5 -255.5q0 -209 -93.5 -384t-261.5 -277.5t-376 -102.5q-142 0 -259.5 50.5t-195 138.5t-119.5 206t-42 253zM358 616q0 -192 98 -311t277 -119q141 0 252.5 76.5 t171.5 204.5t60 281q0 192 -98 311t-277 119q-142 0 -253.5 -76.5t-171 -204t-59.5 -281.5zM776 1505q135 135 215 256l195 -53q-40 -73 -139 -148.5t-201 -117.5z" />
<glyph unicode="&#xd4;" horiz-adv-x="1536" d="M113 623q0 157 55 298t151 244t232.5 163.5t292.5 60.5q142 0 259 -50t194.5 -138t120 -206.5t42.5 -255.5q0 -209 -93.5 -384t-261.5 -277.5t-376 -102.5q-142 0 -259.5 50.5t-195 138.5t-119.5 206t-42 253zM358 616q0 -192 98 -311t277 -119q141 0 252.5 76.5 t171.5 204.5t60 281q0 192 -98 311t-277 119q-142 0 -253.5 -76.5t-171 -204t-59.5 -281.5zM539 1532q139 81 292 211h168q98 -148 197 -219l-59 -80q-71 24 -138.5 68t-103.5 87q-42 -40 -131.5 -84.5t-183.5 -70.5z" />
<glyph unicode="&#xd5;" horiz-adv-x="1536" d="M113 623q0 157 55 298t151 244t232.5 163.5t292.5 60.5q142 0 259 -50t194.5 -138t120 -206.5t42.5 -255.5q0 -209 -93.5 -384t-261.5 -277.5t-376 -102.5q-142 0 -259.5 50.5t-195 138.5t-119.5 206t-42 253zM358 616q0 -192 98 -311t277 -119q141 0 252.5 76.5 t171.5 204.5t60 281q0 192 -98 311t-277 119q-142 0 -253.5 -76.5t-171 -204t-59.5 -281.5zM522 1528q39 81 98.5 131.5t131.5 50.5q50 0 143.5 -40t132.5 -40q78 0 141 84l82 -61q-37 -82 -97 -132.5t-132 -50.5q-50 0 -143 39t-131 39q-80 0 -142 -82z" />
<glyph unicode="&#xd6;" horiz-adv-x="1536" d="M113 623q0 157 55 298t151 244t232.5 163.5t292.5 60.5q142 0 259 -50t194.5 -138t120 -206.5t42.5 -255.5q0 -209 -93.5 -384t-261.5 -277.5t-376 -102.5q-142 0 -259.5 50.5t-195 138.5t-119.5 206t-42 253zM358 616q0 -192 98 -311t277 -119q141 0 252.5 76.5 t171.5 204.5t60 281q0 192 -98 311t-277 119q-142 0 -253.5 -76.5t-171 -204t-59.5 -281.5zM578 1483l40 186h181l-39 -186h-182zM983 1483l41 186h182l-41 -186h-182z" />
<glyph unicode="&#xd7;" d="M53 283l424 354l-274 354l149 115l269 -348l421 352l121 -145l-428 -357l277 -356l-150 -115l-270 350l-418 -350z" />
<glyph unicode="&#xd8;" horiz-adv-x="1544" d="M117 623q0 157 55 298t151 244t232.5 163.5t292.5 60.5q204 0 354 -103l80 96l86 -69l-78 -99q85 -89 129.5 -211.5t44.5 -263.5q0 -209 -93.5 -384t-261.5 -277.5t-376 -102.5q-209 0 -356 103l-78 -96l-86 69l78 99q-85 89 -129.5 211t-44.5 262zM362 616 q0 -172 78 -282l623 780q-94 64 -217 64q-142 0 -253.5 -76.5t-171 -204t-59.5 -281.5zM518 250q89 -64 219 -64q141 0 252.5 76.5t171.5 204.5t60 281q0 168 -80 284z" />
<glyph unicode="&#xd9;" horiz-adv-x="1445" d="M131 393q0 71 21 160l174 811h233l-178 -834q-14 -68 -14 -100q0 -112 74 -177t206 -65q155 0 253.5 83.5t133.5 246.5l180 846h234l-186 -877q-53 -245 -217.5 -378.5t-417.5 -133.5q-220 0 -358 113.5t-138 304.5zM635 1729l201 32q50 -105 176 -258l-86 -59 q-90 49 -174 130t-117 155z" />
<glyph unicode="&#xda;" horiz-adv-x="1445" d="M131 393q0 71 21 160l174 811h233l-178 -834q-14 -68 -14 -100q0 -112 74 -177t206 -65q155 0 253.5 83.5t133.5 246.5l180 846h234l-186 -877q-53 -245 -217.5 -378.5t-417.5 -133.5q-220 0 -358 113.5t-138 304.5zM803 1505q135 135 215 256l194 -53 q-40 -73 -139 -148.5t-201 -117.5z" />
<glyph unicode="&#xdb;" horiz-adv-x="1445" d="M131 393q0 71 21 160l174 811h233l-178 -834q-14 -68 -14 -100q0 -112 74 -177t206 -65q155 0 253.5 83.5t133.5 246.5l180 846h234l-186 -877q-53 -245 -217.5 -378.5t-417.5 -133.5q-220 0 -358 113.5t-138 304.5zM573 1532q142 83 293 211h168q98 -148 197 -219 l-60 -80q-71 23 -138 67.5t-103 87.5q-42 -40 -132 -84.5t-184 -70.5z" />
<glyph unicode="&#xdc;" horiz-adv-x="1445" d="M131 393q0 71 21 160l174 811h233l-178 -834q-14 -68 -14 -100q0 -112 74 -177t206 -65q155 0 253.5 83.5t133.5 246.5l180 846h234l-186 -877q-53 -245 -217.5 -378.5t-417.5 -133.5q-220 0 -358 113.5t-138 304.5zM618 1483l41 186h181l-39 -186h-183zM1024 1483 l41 186h182l-41 -186h-182z" />
<glyph unicode="&#xdd;" horiz-adv-x="1261" d="M145 1364h258l248 -602l484 602h284l-688 -823l-115 -541h-235l117 551zM690 1505q135 135 215 256l195 -53q-40 -73 -139 -148.5t-201 -117.5z" />
<glyph unicode="&#xde;" horiz-adv-x="1306" d="M49 0l291 1364h231l-41 -195h285q223 0 345 -107.5t122 -293.5q0 -207 -147 -338t-400 -131h-389l-63 -299h-234zM391 510h369q134 0 205 69.5t71 180.5q0 96 -60 147t-181 51h-308z" />
<glyph unicode="&#xdf;" horiz-adv-x="1288" d="M27 0l231 1100q40 189 168.5 288t339.5 99q201 0 331 -107t130 -276q0 -126 -81.5 -218.5t-205.5 -127.5q96 -40 157.5 -130.5t61.5 -211.5q0 -192 -148.5 -316.5t-381.5 -124.5q-142 0 -256 54l65 188q86 -45 195 -45q134 0 215.5 70.5t81.5 189.5q0 116 -78 184 t-209 68h-76l39 186h142q109 0 179 56.5t70 156.5q0 102 -70.5 158.5t-174.5 56.5q-231 0 -279 -225l-227 -1073h-219z" />
<glyph unicode="&#xe0;" horiz-adv-x="1189" d="M20 285q0 78 26.5 137.5t66 95t98.5 60t112 35t119 16.5q21 2 61 5.5t61 5.5t55 6t52.5 9t44 12.5t39 17.5t27 23.5t19.5 31.5t6 40q0 49 -32.5 79t-75 40t-95.5 10q-187 0 -346 -108l-82 157q205 142 451 142q183 0 292 -76.5t109 -216.5q0 -42 -24 -164l-78 -358 q-11 -46 -11 -70q0 -30 19 -46.5t53 -16.5q42 0 70 22l28 -158q-59 -34 -153 -34q-194 0 -217 161q-128 -168 -353 -168q-157 0 -249.5 80.5t-92.5 229.5zM246 303q0 -151 178 -151q112 0 197 69t116 205l31 147q-45 -45 -108 -64t-166 -32q-32 -4 -49 -6.5t-44.5 -7.5 t-43 -10.5t-36 -14.5t-32 -21.5t-22.5 -28.5t-16 -37.5t-5 -47.5zM420 1470l201 33q50 -105 176 -258l-86 -59q-90 49 -174 129.5t-117 154.5z" />
<glyph unicode="&#xe1;" horiz-adv-x="1189" d="M20 285q0 78 26.5 137.5t66 95t98.5 60t112 35t119 16.5q21 2 61 5.5t61 5.5t55 6t52.5 9t44 12.5t39 17.5t27 23.5t19.5 31.5t6 40q0 49 -32.5 79t-75 40t-95.5 10q-187 0 -346 -108l-82 157q205 142 451 142q183 0 292 -76.5t109 -216.5q0 -42 -24 -164l-78 -358 q-11 -46 -11 -70q0 -30 19 -46.5t53 -16.5q42 0 70 22l28 -158q-59 -34 -153 -34q-194 0 -217 161q-128 -168 -353 -168q-157 0 -249.5 80.5t-92.5 229.5zM246 303q0 -151 178 -151q112 0 197 69t116 205l31 147q-45 -45 -108 -64t-166 -32q-32 -4 -49 -6.5t-44.5 -7.5 t-43 -10.5t-36 -14.5t-32 -21.5t-22.5 -28.5t-16 -37.5t-5 -47.5zM535 1247q135 135 215 256l194 -53q-40 -73 -139 -148.5t-201 -117.5z" />
<glyph unicode="&#xe2;" horiz-adv-x="1189" d="M20 285q0 78 26.5 137.5t66 95t98.5 60t112 35t119 16.5q21 2 61 5.5t61 5.5t55 6t52.5 9t44 12.5t39 17.5t27 23.5t19.5 31.5t6 40q0 49 -32.5 79t-75 40t-95.5 10q-187 0 -346 -108l-82 157q205 142 451 142q183 0 292 -76.5t109 -216.5q0 -42 -24 -164l-78 -358 q-11 -46 -11 -70q0 -30 19 -46.5t53 -16.5q42 0 70 22l28 -158q-59 -34 -153 -34q-194 0 -217 161q-128 -168 -353 -168q-157 0 -249.5 80.5t-92.5 229.5zM246 303q0 -151 178 -151q112 0 197 69t116 205l31 147q-45 -45 -108 -64t-166 -32q-32 -4 -49 -6.5t-44.5 -7.5 t-43 -10.5t-36 -14.5t-32 -21.5t-22.5 -28.5t-16 -37.5t-5 -47.5zM350 1274q142 83 293 211h168q98 -148 197 -219l-60 -80q-71 23 -138 67.5t-103 87.5q-42 -40 -132 -84.5t-184 -70.5z" />
<glyph unicode="&#xe3;" horiz-adv-x="1189" d="M20 285q0 78 26.5 137.5t66 95t98.5 60t112 35t119 16.5q21 2 61 5.5t61 5.5t55 6t52.5 9t44 12.5t39 17.5t27 23.5t19.5 31.5t6 40q0 49 -32.5 79t-75 40t-95.5 10q-187 0 -346 -108l-82 157q205 142 451 142q183 0 292 -76.5t109 -216.5q0 -42 -24 -164l-78 -358 q-11 -46 -11 -70q0 -30 19 -46.5t53 -16.5q42 0 70 22l28 -158q-59 -34 -153 -34q-194 0 -217 161q-128 -168 -353 -168q-157 0 -249.5 80.5t-92.5 229.5zM246 303q0 -151 178 -151q112 0 197 69t116 205l31 147q-45 -45 -108 -64t-166 -32q-32 -4 -49 -6.5t-44.5 -7.5 t-43 -10.5t-36 -14.5t-32 -21.5t-22.5 -28.5t-16 -37.5t-5 -47.5zM326 1270q39 82 98.5 132t130.5 50q50 0 143.5 -40t132.5 -40q35 0 73 21.5t69 62.5l82 -61q-37 -82 -97.5 -132.5t-132.5 -50.5q-50 0 -143 39t-131 39q-79 0 -141 -82z" />
<glyph unicode="&#xe4;" horiz-adv-x="1189" d="M20 285q0 78 26.5 137.5t66 95t98.5 60t112 35t119 16.5q21 2 61 5.5t61 5.5t55 6t52.5 9t44 12.5t39 17.5t27 23.5t19.5 31.5t6 40q0 49 -32.5 79t-75 40t-95.5 10q-187 0 -346 -108l-82 157q205 142 451 142q183 0 292 -76.5t109 -216.5q0 -42 -24 -164l-78 -358 q-11 -46 -11 -70q0 -30 19 -46.5t53 -16.5q42 0 70 22l28 -158q-59 -34 -153 -34q-194 0 -217 161q-128 -168 -353 -168q-157 0 -249.5 80.5t-92.5 229.5zM246 303q0 -151 178 -151q112 0 197 69t116 205l31 147q-45 -45 -108 -64t-166 -32q-32 -4 -49 -6.5t-44.5 -7.5 t-43 -10.5t-36 -14.5t-32 -21.5t-22.5 -28.5t-16 -37.5t-5 -47.5zM389 1225l41 186h180l-39 -186h-182zM795 1225l41 186h182l-41 -186h-182z" />
<glyph unicode="&#xe5;" horiz-adv-x="1189" d="M20 285q0 78 26.5 137.5t66 95t98.5 60t112 35t119 16.5q21 2 61 5.5t61 5.5t55 6t52.5 9t44 12.5t39 17.5t27 23.5t19.5 31.5t6 40q0 49 -32.5 79t-75 40t-95.5 10q-187 0 -346 -108l-82 157q205 142 451 142q183 0 292 -76.5t109 -216.5q0 -42 -24 -164l-78 -358 q-11 -46 -11 -70q0 -30 19 -46.5t53 -16.5q42 0 70 22l28 -158q-59 -34 -153 -34q-194 0 -217 161q-128 -168 -353 -168q-157 0 -249.5 80.5t-92.5 229.5zM246 303q0 -151 178 -151q112 0 197 69t116 205l31 147q-45 -45 -108 -64t-166 -32q-32 -4 -49 -6.5t-44.5 -7.5 t-43 -10.5t-36 -14.5t-32 -21.5t-22.5 -28.5t-16 -37.5t-5 -47.5zM485 1384q0 90 68 154t164 64q95 0 157 -60.5t62 -148.5q0 -90 -66.5 -153.5t-164.5 -63.5q-95 0 -157.5 60.5t-62.5 147.5zM602 1382q0 -45 29.5 -75.5t75.5 -30.5q49 0 80.5 34.5t31.5 82.5 q0 45 -29.5 77.5t-74.5 32.5q-49 0 -81 -35.5t-32 -85.5z" />
<glyph unicode="&#xe6;" horiz-adv-x="1890" d="M20 285q0 56 15 103t38.5 80t59.5 58.5t71 41.5t80.5 27.5t80 17t77.5 10.5q172 19 205 25q130 25 154 93q6 18 6 39q0 37 -18 63.5t-49 40t-65 19.5t-73 6q-185 0 -344 -108l-82 157q205 142 449 142q126 0 214.5 -39.5t127.5 -116.5q159 156 362 156q146 0 256 -62.5 t165.5 -165.5t55.5 -229q0 -73 -24 -160h-801v-32q0 -128 80 -204.5t213 -76.5q90 0 170 35t139 100l137 -135q-189 -195 -460 -195q-158 0 -269 64t-166 174q-76 -122 -194 -180t-258 -58q-161 0 -257 80.5t-96 229.5zM246 303q0 -151 178 -151q112 0 197 69t116 205 l31 147q-20 -18 -46 -32.5t-44 -22.5t-55 -15.5t-49.5 -9.5t-58 -7.5t-52.5 -6.5q-105 -15 -161 -53.5t-56 -122.5zM1004 639h581q2 8 2 27q0 116 -72.5 186t-189.5 70q-121 0 -207.5 -77.5t-113.5 -205.5z" />
<glyph unicode="&#xe7;" horiz-adv-x="1118" d="M76 483q0 168 74 308.5t208.5 223.5t300.5 83q155 0 262.5 -70t168.5 -178l-179 -105q-84 160 -249 160q-157 0 -255 -124t-98 -296q0 -141 67.5 -228t194.5 -87q154 0 273 154l143 -134q-148 -184 -366 -206q-40 -7 -76 -7q65 -76 65 -151q0 -83 -62.5 -129.5 t-154.5 -46.5q-73 0 -136 31t-103 86l69 75q22 -28 59.5 -47.5t73.5 -19.5q43 0 71 27t28 75q0 57 -41 119q-159 41 -248.5 172t-89.5 315z" />
<glyph unicode="&#xe8;" horiz-adv-x="1218" d="M72 483q0 124 42.5 236.5t118 196.5t186 134t238.5 50q219 0 348.5 -131.5t129.5 -325.5q0 -69 -25 -160h-801v-32q0 -128 80 -204.5t213 -76.5q90 0 170 35t139 100l138 -135q-189 -195 -461 -195q-244 0 -380 141.5t-136 366.5zM332 639h581q2 8 2 27q0 116 -72.5 186 t-187.5 70q-123 0 -209.5 -77.5t-113.5 -205.5zM440 1470l201 33q50 -105 176 -258l-86 -59q-90 49 -174 129.5t-117 154.5z" />
<glyph unicode="&#xe9;" horiz-adv-x="1218" d="M72 483q0 124 42.5 236.5t118 196.5t186 134t238.5 50q219 0 348.5 -131.5t129.5 -325.5q0 -69 -25 -160h-801v-32q0 -128 80 -204.5t213 -76.5q90 0 170 35t139 100l138 -135q-189 -195 -461 -195q-244 0 -380 141.5t-136 366.5zM332 639h581q2 8 2 27q0 116 -72.5 186 t-187.5 70q-123 0 -209.5 -77.5t-113.5 -205.5zM580 1247q135 135 215 256l194 -53q-40 -73 -139 -148.5t-201 -117.5z" />
<glyph unicode="&#xea;" horiz-adv-x="1218" d="M72 483q0 124 42.5 236.5t118 196.5t186 134t238.5 50q219 0 348.5 -131.5t129.5 -325.5q0 -69 -25 -160h-801v-32q0 -128 80 -204.5t213 -76.5q90 0 170 35t139 100l138 -135q-189 -195 -461 -195q-244 0 -380 141.5t-136 366.5zM332 639h581q2 8 2 27q0 116 -72.5 186 t-187.5 70q-123 0 -209.5 -77.5t-113.5 -205.5zM348 1274q142 83 293 211h168q98 -148 197 -219l-60 -80q-71 23 -138 67.5t-103 87.5q-42 -40 -132 -84.5t-184 -70.5z" />
<glyph unicode="&#xeb;" horiz-adv-x="1218" d="M72 483q0 124 42.5 236.5t118 196.5t186 134t238.5 50q219 0 348.5 -131.5t129.5 -325.5q0 -69 -25 -160h-801v-32q0 -128 80 -204.5t213 -76.5q90 0 170 35t139 100l138 -135q-189 -195 -461 -195q-244 0 -380 141.5t-136 366.5zM332 639h581q2 8 2 27q0 116 -72.5 186 t-187.5 70q-123 0 -209.5 -77.5t-113.5 -205.5zM397 1225l41 186h180l-38 -186h-183zM803 1225l41 186h182l-41 -186h-182z" />
<glyph unicode="&#xec;" horiz-adv-x="528" d="M27 0l227 1075h221l-227 -1075h-221zM152 1470l200 33q50 -105 176 -258l-86 -59q-90 49 -173.5 129.5t-116.5 154.5z" />
<glyph unicode="&#xed;" horiz-adv-x="528" d="M27 0l227 1075h221l-227 -1075h-221zM297 1247q135 135 215 256l195 -53q-40 -73 -139 -148.5t-201 -117.5z" />
<glyph unicode="&#xee;" horiz-adv-x="528" d="M27 0l227 1075h221l-227 -1075h-221zM57 1274q142 83 293 211h168q98 -148 197 -219l-60 -80q-71 23 -138 67.5t-103 87.5q-42 -40 -132 -84.5t-184 -70.5z" />
<glyph unicode="&#xef;" horiz-adv-x="528" d="M27 0l227 1075h221l-227 -1075h-221zM102 1225l41 186h181l-39 -186h-183zM508 1225l41 186h182l-41 -186h-182z" />
<glyph unicode="&#xf0;" horiz-adv-x="1263" d="M72 469q0 151 68.5 276.5t189 198t266.5 72.5q96 0 180 -33.5t133 -91.5q-61 163 -178 283l-244 -109l-41 96l191 88q-67 56 -152 99l154 137q115 -65 209 -150l258 115l41 -96l-217 -99q233 -264 233 -630q0 -295 -166 -472.5t-426 -177.5q-227 0 -363 139t-136 355z M307 467q0 -130 71.5 -211.5t207.5 -81.5q105 0 183.5 52t116.5 133.5t38 177.5q0 129 -72.5 213t-210.5 84q-106 0 -183.5 -54t-114 -136t-36.5 -177z" />
<glyph unicode="&#xf1;" horiz-adv-x="1224" d="M27 0l227 1075h221l-31 -145q151 170 359 170q147 0 229 -87.5t82 -217.5q0 -56 -14 -121l-146 -674h-221l137 641q13 71 13 92q0 77 -45.5 121.5t-132.5 44.5q-119 0 -210.5 -83t-119.5 -216l-127 -600h-221zM418 1270q39 82 98.5 132t130.5 50q50 0 144 -40t133 -40 q78 0 141 84l82 -61q-37 -82 -97 -132.5t-132 -50.5q-50 0 -143.5 39t-131.5 39q-79 0 -141 -82z" />
<glyph unicode="&#xf2;" horiz-adv-x="1255" d="M76 489q0 169 71.5 307.5t205.5 221t304 82.5q230 0 364 -141.5t134 -372.5q0 -169 -72 -308t-205.5 -221t-302.5 -82q-231 0 -365 141.5t-134 372.5zM309 483q0 -137 68.5 -226t195.5 -89q104 0 185.5 61.5t122.5 158t41 206.5q0 137 -68.5 224t-196.5 87 q-104 0 -185 -61t-122 -156.5t-41 -204.5zM434 1470l201 33q50 -105 176 -258l-86 -59q-90 49 -174 129.5t-117 154.5z" />
<glyph unicode="&#xf3;" horiz-adv-x="1255" d="M76 489q0 169 71.5 307.5t205.5 221t304 82.5q230 0 364 -141.5t134 -372.5q0 -169 -72 -308t-205.5 -221t-302.5 -82q-231 0 -365 141.5t-134 372.5zM309 483q0 -137 68.5 -226t195.5 -89q104 0 185.5 61.5t122.5 158t41 206.5q0 137 -68.5 224t-196.5 87 q-104 0 -185 -61t-122 -156.5t-41 -204.5zM578 1247q135 135 215 256l194 -53q-40 -73 -139 -148.5t-201 -117.5z" />
<glyph unicode="&#xf4;" horiz-adv-x="1255" d="M76 489q0 169 71.5 307.5t205.5 221t304 82.5q230 0 364 -141.5t134 -372.5q0 -169 -72 -308t-205.5 -221t-302.5 -82q-231 0 -365 141.5t-134 372.5zM309 483q0 -137 68.5 -226t195.5 -89q104 0 185.5 61.5t122.5 158t41 206.5q0 137 -68.5 224t-196.5 87 q-104 0 -185 -61t-122 -156.5t-41 -204.5zM354 1274q142 83 293 211h168q98 -148 197 -219l-60 -80q-71 23 -138 67.5t-103 87.5q-42 -40 -132 -84.5t-184 -70.5z" />
<glyph unicode="&#xf5;" horiz-adv-x="1255" d="M76 489q0 169 71.5 307.5t205.5 221t304 82.5q230 0 364 -141.5t134 -372.5q0 -169 -72 -308t-205.5 -221t-302.5 -82q-231 0 -365 141.5t-134 372.5zM309 483q0 -137 68.5 -226t195.5 -89q104 0 185.5 61.5t122.5 158t41 206.5q0 137 -68.5 224t-196.5 87 q-104 0 -185 -61t-122 -156.5t-41 -204.5zM354 1270q39 81 98.5 131.5t131.5 50.5q50 0 143.5 -40t132.5 -40q78 0 141 84l82 -61q-37 -82 -97 -132.5t-132 -50.5q-50 0 -143 39t-131 39q-80 0 -142 -82z" />
<glyph unicode="&#xf6;" horiz-adv-x="1255" d="M76 489q0 169 71.5 307.5t205.5 221t304 82.5q230 0 364 -141.5t134 -372.5q0 -169 -72 -308t-205.5 -221t-302.5 -82q-231 0 -365 141.5t-134 372.5zM309 483q0 -137 68.5 -226t195.5 -89q104 0 185.5 61.5t122.5 158t41 206.5q0 137 -68.5 224t-196.5 87 q-104 0 -185 -61t-122 -156.5t-41 -204.5zM399 1225l41 186h181l-39 -186h-183zM805 1225l41 186h182l-41 -186h-182z" />
<glyph unicode="&#xf7;" d="M94 528l39 189h985l-41 -189h-983zM379 229q0 60 42 103t101 43q60 0 103 -43t43 -103q0 -59 -43 -101t-103 -42q-58 0 -100.5 42t-42.5 101zM545 1016q0 58 42.5 100.5t100.5 42.5q60 0 103 -42t43 -101q0 -60 -43 -103t-103 -43q-59 0 -101 43t-42 103z" />
<glyph unicode="&#xf8;" horiz-adv-x="1257" d="M76 489q0 169 71.5 307.5t205.5 221t304 82.5q159 0 279 -74l55 66l84 -68l-55 -68q135 -138 135 -370q0 -169 -72 -308t-205.5 -221t-302.5 -82q-162 0 -282 74l-53 -65l-84 67l53 68q-133 136 -133 370zM309 483q0 -107 45 -186l451 565q-58 43 -148 43 q-104 0 -185 -61t-122 -156.5t-41 -204.5zM426 211q62 -43 147 -43q104 0 185.5 61.5t122.5 158t41 206.5q0 105 -48 184z" />
<glyph unicode="&#xf9;" horiz-adv-x="1224" d="M84 281q0 54 14 122l146 672h221l-137 -641q-13 -54 -13 -92q0 -77 46 -121.5t133 -44.5q117 0 208.5 83t120.5 216l127 600h221l-227 -1075h-223l33 145q-148 -170 -359 -170q-147 0 -229 88t-82 218zM442 1470l201 33q50 -105 176 -258l-86 -59q-90 49 -174 129.5 t-117 154.5z" />
<glyph unicode="&#xfa;" horiz-adv-x="1224" d="M84 281q0 54 14 122l146 672h221l-137 -641q-13 -54 -13 -92q0 -77 46 -121.5t133 -44.5q117 0 208.5 83t120.5 216l127 600h221l-227 -1075h-223l33 145q-148 -170 -359 -170q-147 0 -229 88t-82 218zM629 1247q135 135 215 256l194 -53q-40 -73 -139 -148.5 t-201 -117.5z" />
<glyph unicode="&#xfb;" horiz-adv-x="1224" d="M84 281q0 54 14 122l146 672h221l-137 -641q-13 -54 -13 -92q0 -77 46 -121.5t133 -44.5q117 0 208.5 83t120.5 216l127 600h221l-227 -1075h-223l33 145q-148 -170 -359 -170q-147 0 -229 88t-82 218zM401 1274q142 83 293 211h168q98 -148 197 -219l-60 -80 q-71 23 -138 67.5t-103 87.5q-42 -40 -132 -84.5t-184 -70.5z" />
<glyph unicode="&#xfc;" horiz-adv-x="1224" d="M84 281q0 54 14 122l146 672h221l-137 -641q-13 -54 -13 -92q0 -77 46 -121.5t133 -44.5q117 0 208.5 83t120.5 216l127 600h221l-227 -1075h-223l33 145q-148 -170 -359 -170q-147 0 -229 88t-82 218zM446 1225l41 186h181l-39 -186h-183zM852 1225l41 186h182l-41 -186 h-182z" />
<glyph unicode="&#xfd;" horiz-adv-x="1091" d="M-139 -305l106 155q50 -40 113 -40q60 0 105 38.5t89 108.5l45 68l-213 1050h240l135 -784l437 784h249l-655 -1118q-51 -88 -90.5 -144t-89.5 -102.5t-107 -67t-129 -20.5q-145 0 -235 72zM563 1247q135 135 215 256l195 -53q-40 -73 -139 -148.5t-201 -117.5z" />
<glyph unicode="&#xfe;" horiz-adv-x="1306" d="M-47 -356l383 1818h221l-111 -522q144 160 338 160q191 0 308.5 -140.5t117.5 -357.5q0 -169 -72.5 -312.5t-202.5 -229t-288 -85.5q-245 0 -358 209l-115 -540h-221zM356 475q0 -134 69.5 -218.5t199.5 -84.5q107 0 188.5 61.5t121.5 156t40 204.5q0 135 -65 222 t-195 87q-81 0 -150.5 -37.5t-114 -98.5t-69.5 -137t-25 -155z" />
<glyph unicode="&#xff;" horiz-adv-x="1091" d="M-139 -305l106 155q50 -40 113 -40q60 0 105 38.5t89 108.5l45 68l-213 1050h240l135 -784l437 784h249l-655 -1118q-51 -88 -90.5 -144t-89.5 -102.5t-107 -67t-129 -20.5q-145 0 -235 72zM358 1225l41 186h181l-39 -186h-183zM764 1225l41 186h182l-41 -186h-182z" />
<glyph unicode="&#x152;" horiz-adv-x="2023" d="M115 604q0 156 51 294t144 242t234 164t310 60h1217l-46 -213h-677l-72 -336h582l-41 -197h-584l-86 -405h700l-47 -213h-1065q-151 0 -271 47.5t-195 130.5t-114.5 191.5t-39.5 234.5zM358 610q0 -184 95 -290.5t286 -106.5h174l201 938h-272q-113 0 -206 -43 t-153 -117.5t-92.5 -172t-32.5 -208.5z" />
<glyph unicode="&#x153;" horiz-adv-x="2050" d="M76 489q0 169 71.5 307.5t205.5 221t304 82.5q136 0 239 -57.5t161 -159.5q76 100 188 158.5t246 58.5q221 0 349 -131t128 -336q0 -85 -24 -150h-801v-32q0 -128 76.5 -204.5t207.5 -76.5q183 0 312 135l137 -135q-189 -195 -461 -195q-145 0 -249 55t-162 156 q-131 -166 -342 -200q-84 -10 -152 -2q-203 17 -318.5 154.5t-115.5 350.5zM309 483q0 -137 68.5 -226t195.5 -89q104 0 185.5 61.5t122.5 158t41 206.5q0 137 -68.5 224t-196.5 87q-104 0 -185 -61t-122 -156.5t-41 -204.5zM1165 639h582q3 53 -10 100q-20 85 -87 134 t-161 49q-123 0 -210 -77.5t-114 -205.5z" />
<glyph unicode="&#x178;" horiz-adv-x="1261" d="M145 1364h258l248 -602l484 602h284l-688 -823l-115 -541h-235l117 551zM487 1483l41 186h181l-39 -186h-183zM893 1483l41 186h182l-41 -186h-182z" />
<glyph unicode="&#x2c6;" horiz-adv-x="667" d="M139 1274q142 83 293 211h168q98 -148 197 -219l-60 -80q-71 23 -138 67.5t-103 87.5q-42 -40 -132 -84.5t-184 -70.5z" />
<glyph unicode="&#x2dc;" horiz-adv-x="698" d="M125 1270q39 82 98.5 132t130.5 50q50 0 144 -40t133 -40q78 0 141 84l82 -61q-37 -82 -97 -132.5t-132 -50.5q-50 0 -143.5 39t-131.5 39q-79 0 -141 -82z" />
<glyph unicode="&#x2000;" horiz-adv-x="881" />
<glyph unicode="&#x2001;" horiz-adv-x="1763" />
<glyph unicode="&#x2002;" horiz-adv-x="881" />
<glyph unicode="&#x2003;" horiz-adv-x="1763" />
<glyph unicode="&#x2004;" horiz-adv-x="587" />
<glyph unicode="&#x2005;" horiz-adv-x="440" />
<glyph unicode="&#x2006;" horiz-adv-x="293" />
<glyph unicode="&#x2007;" horiz-adv-x="293" />
<glyph unicode="&#x2008;" horiz-adv-x="220" />
<glyph unicode="&#x2009;" horiz-adv-x="352" />
<glyph unicode="&#x200a;" horiz-adv-x="97" />
<glyph unicode="&#x2010;" horiz-adv-x="811" d="M94 477l43 197h568l-41 -197h-570z" />
<glyph unicode="&#x2011;" horiz-adv-x="811" d="M94 477l43 197h568l-41 -197h-570z" />
<glyph unicode="&#x2012;" horiz-adv-x="811" d="M94 477l43 197h568l-41 -197h-570z" />
<glyph unicode="&#x2013;" d="M92 528l39 189h985l-41 -189h-983z" />
<glyph unicode="&#x2014;" horiz-adv-x="1865" d="M104 528l39 189h1626l-38 -189h-1627z" />
<glyph unicode="&#x2018;" horiz-adv-x="501" d="M166 817l47 232q26 123 89 203.5t179 138.5l51 -101q-138 -66 -170 -190l-12 -51h119l-49 -232h-254z" />
<glyph unicode="&#x2019;" horiz-adv-x="475" d="M166 891q67 32 110.5 82t57.5 110l12 52h-117l50 229h253l-49 -229q-27 -123 -89.5 -204.5t-176.5 -139.5z" />
<glyph unicode="&#x201a;" horiz-adv-x="542" d="M-43 -227q68 32 111.5 81t58.5 109l12 51h-119l52 232h254l-50 -232q-26 -123 -89 -203.5t-179 -138.5z" />
<glyph unicode="&#x201c;" horiz-adv-x="913" d="M166 817l47 232q26 123 89 203.5t179 138.5l51 -101q-138 -66 -170 -190l-12 -51h119l-49 -232h-254zM578 817l47 232q26 123 89 203.5t179 138.5l51 -101q-138 -66 -170 -190l-12 -51h119l-50 -232h-253z" />
<glyph unicode="&#x201d;" horiz-adv-x="886" d="M166 891q67 32 110.5 82t57.5 110l12 52h-117l50 229h253l-49 -229q-27 -123 -89.5 -204.5t-176.5 -139.5zM578 891q67 32 110 82t57 110l13 52h-117l49 229h254l-49 -229q-27 -123 -89.5 -204.5t-176.5 -139.5z" />
<glyph unicode="&#x201e;" horiz-adv-x="954" d="M-43 -227q68 32 111.5 81t58.5 109l12 51h-119l52 232h254l-50 -232q-26 -123 -89 -203.5t-179 -138.5zM369 -227q68 32 111.5 81t58.5 109l12 51h-119l51 232h254l-49 -232q-26 -123 -89 -203.5t-179 -138.5z" />
<glyph unicode="&#x2022;" horiz-adv-x="790" d="M113 682q0 123 86 210t209 87t211 -87t88 -210t-88 -209t-211 -86t-209 86t-86 209z" />
<glyph unicode="&#x2026;" horiz-adv-x="1517" d="M20 0l54 252h254l-54 -252h-254zM506 0l53 252h256l-53 -252h-256zM993 0l54 252h253l-51 -252h-256z" />
<glyph unicode="&#x202f;" horiz-adv-x="352" />
<glyph unicode="&#x2039;" horiz-adv-x="583" d="M45 502l16 78l385 397l103 -107l-320 -354l166 -346l-135 -72z" />
<glyph unicode="&#x203a;" horiz-adv-x="585" d="M8 203l320 354l-164 348l133 72l217 -406l-16 -77l-385 -396z" />
<glyph unicode="&#x205f;" horiz-adv-x="440" />
<glyph unicode="&#x20ac;" horiz-adv-x="1566" d="M86 492l25 116h133v15q0 69 12 131h-113l23 114h115q72 231 260 376t438 145q189 0 329 -85.5t212 -234.5l-205 -100q-105 211 -340 211q-151 0 -266 -85t-172 -227h516l-25 -114h-528q-13 -70 -13 -133v-13h510l-24 -116h-469q28 -143 121.5 -225.5t236.5 -82.5 q222 0 355 191l169 -133q-205 -267 -532 -267q-244 0 -403 143t-197 374h-168z" />
<glyph unicode="&#x2122;" horiz-adv-x="1513" d="M258 1247l25 119h505l-24 -119h-193l-100 -471h-123l98 471h-188zM754 776l125 590h178l47 -455l244 455h172l-125 -590h-121l94 447l-240 -447h-112l-49 447l-93 -447h-120z" />
<glyph unicode="&#xe000;" horiz-adv-x="1075" d="M0 0v1075h1075v-1075h-1075z" />
</font>
</defs>
</svg>
